<svg xmlns="http://www.w3.org/2000/svg" xmlns:xlink="http://www.w3.org/1999/xlink" viewBox="0 0 60 60" version="1.1" x="0px" y="0px"><title>018 - Fireplace</title><desc>Created with Sketch.</desc><g stroke="none" stroke-width="1" fill="none" fill-rule="evenodd" stroke-linecap="round" stroke-linejoin="round"><g transform="translate(1.000000, 1.000000)" stroke="#000000" stroke-width="2"><path d="M1,54 L57,54 C57.5522847,54 58,54.4477153 58,55 L58,58 L0,58 L0,55 C-1.11022302e-16,54.4477153 0.44771525,54 1,54 Z"/><path d="M2,14 L56,14 L56,17 C56,17.5522847 55.5522847,18 55,18 L3,18 C2.44771525,18 2,17.5522847 2,17 L2,14 Z"/><path d="M4,50 L15,50 L15,54 L3,54 L3,51 C3,50.4477153 3.44771525,50 4,50 Z"/><rect x="5" y="28" width="8" height="22"/><rect x="3" y="18" width="12" height="4"/><polyline points="3 22 5 28 13 28 15 22"/><path d="M43,50 L55,50 L55,54 L44,54 C43.4477153,54 43,53.5522847 43,53 L43,50 Z" transform="translate(49.000000, 52.000000) rotate(-180.000000) translate(-49.000000, -52.000000) "/><rect transform="translate(49.000000, 39.000000) rotate(-180.000000) translate(-49.000000, -39.000000) " x="45" y="28" width="8" height="22"/><rect transform="translate(49.000000, 20.000000) rotate(-180.000000) translate(-49.000000, -20.000000) " x="43" y="18" width="12" height="4"/><polyline points="55 22 53 28 45 28 43 22"/><rect x="15" y="50" width="28" height="4"/><rect x="0" y="10" width="58" height="4" rx="1"/><path d="M4,4 L17,4 C18.6568542,4 20,5.34314575 20,7 C20,8.65685425 18.6568542,10 17,10 L4,10 L4,4 Z"/><path d="M4,7 L15,7"/><polygon points="33 10 25 10 26 0 32 0"/><circle cx="40.5" cy="7.5" r="2.5"/><circle cx="45.5" cy="7.5" r="2.5"/><circle cx="50.5" cy="7.5" r="2.5"/><path d="M29,25 C34.5228475,25 39,29.4771525 39,35 L39,50 L19,50 L19,35 C19,29.4771525 23.4771525,25 29,25 Z"/><path d="M24,46 L34,46 C34.5522847,46 35,46.4477153 35,47 L35,50 L23,50 L23,47 C23,46.4477153 23.4477153,46 24,46 Z"/><path d="M27.371,31 C29.18553,36.17067 24,38.239 24,41.34138 C24.0987927,44.0064683 26.3345872,46.0896117 29,46 C31.6654128,46.0896117 33.9012073,44.0064683 34,41.34138 C34,38.239 30.68553,33.84136 27.371,31 Z"/></g></g></svg>